<svg width="34" height="34" viewBox="0 0 34 34" fill="none" xmlns="http://www.w3.org/2000/svg">
<path d="M34 17C34 17 27.625 5.3125 17 5.3125C6.375 5.3125 0 17 0 17C0 17 6.375 28.6875 17 28.6875C27.625 28.6875 34 17 34 17ZM2.49199 17C2.61295 16.8156 2.7509 16.6106 2.90546 16.3889C3.61709 15.3679 4.66716 14.0099 6.01823 12.6589C8.75719 9.91989 12.4963 7.4375 17 7.4375C21.5037 7.4375 25.2428 9.91989 27.9818 12.6589C29.3328 14.0099 30.3829 15.3679 31.0945 16.3889C31.2491 16.6106 31.387 16.8156 31.508 17C31.387 17.1844 31.2491 17.3894 31.0945 17.6111C30.3829 18.6321 29.3328 19.9901 27.9818 21.3411C25.2428 24.0801 21.5037 26.5625 17 26.5625C12.4963 26.5625 8.75719 24.0801 6.01823 21.3411C4.66716 19.9901 3.61709 18.6321 2.90546 17.6111C2.7509 17.3894 2.61295 17.1844 2.49199 17Z" fill="#001349"/>
<path d="M17 11.6875C14.066 11.6875 11.6875 14.066 11.6875 17C11.6875 19.934 14.066 22.3125 17 22.3125C19.934 22.3125 22.3125 19.934 22.3125 17C22.3125 14.066 19.934 11.6875 17 11.6875ZM9.5625 17C9.5625 12.8924 12.8924 9.5625 17 9.5625C21.1076 9.5625 24.4375 12.8924 24.4375 17C24.4375 21.1076 21.1076 24.4375 17 24.4375C12.8924 24.4375 9.5625 21.1076 9.5625 17Z" fill="#001349"/>
</svg>
