<svg width="26" height="34" viewBox="0 0 26 34" fill="none" xmlns="http://www.w3.org/2000/svg">
<path d="M0 12.75C0 5.70837 5.8203 0 13 0C20.1797 0 26 5.70837 26 12.75C26 16.3439 24.4825 19.592 22.0445 21.9084C21.6047 22.3262 21.2662 22.7602 21.0628 23.2235L19.4116 26.9828C19.2405 27.3725 18.8493 27.625 18.4167 27.625C19.015 27.625 19.5 28.1007 19.5 28.6875C19.5 29.2743 19.015 29.75 18.4167 29.75C19.015 29.75 19.5 30.2257 19.5 30.8125C19.5 31.3993 19.015 31.875 18.4167 31.875L17.9322 32.8253C17.5652 33.5452 16.8149 34 15.9943 34H10.0057C9.18507 34 8.43483 33.5452 8.06782 32.8253L7.58333 31.875C6.98502 31.875 6.5 31.3993 6.5 30.8125C6.5 30.2257 6.98502 29.75 7.58333 29.75C6.98502 29.75 6.5 29.2743 6.5 28.6875C6.5 28.1007 6.98502 27.625 7.58333 27.625C7.1507 27.625 6.75955 27.3725 6.58839 26.9828L4.93724 23.2235C4.73375 22.7602 4.39525 22.3262 3.95554 21.9084C1.51752 19.592 0 16.3439 0 12.75ZM13 2.125C7.01691 2.125 2.16667 6.88197 2.16667 12.75C2.16667 15.7452 3.42894 18.4495 5.46309 20.3821C6.032 20.9227 6.57506 21.5812 6.92714 22.3828L8.29624 25.5H17.7038L19.0729 22.3828C19.4249 21.5812 19.968 20.9227 20.5369 20.3821C22.5711 18.4495 23.8333 15.7452 23.8333 12.75C23.8333 6.88197 18.9831 2.125 13 2.125Z" fill="#001349"/>
</svg>
