<svg width="34" height="34" viewBox="0 0 34 34" fill="none" xmlns="http://www.w3.org/2000/svg">
<path d="M31.875 29.75C31.875 29.75 34 29.75 34 27.625C34 25.5 31.875 19.125 23.375 19.125C14.875 19.125 12.75 25.5 12.75 27.625C12.75 29.75 14.875 29.75 14.875 29.75H31.875ZM14.9225 27.625C14.9151 27.6241 14.9048 27.6228 14.8923 27.6207C14.8864 27.6197 14.8807 27.6187 14.875 27.6176C14.8781 27.0565 15.2296 25.4297 16.4884 23.9611C17.6659 22.5874 19.7257 21.25 23.375 21.25C27.0243 21.25 29.0841 22.5874 30.2616 23.9611C31.5204 25.4297 31.8719 27.0565 31.875 27.6176C31.8693 27.6187 31.8636 27.6197 31.8577 27.6207C31.8452 27.6228 31.8349 27.6241 31.8275 27.625H14.9225Z" fill="black"/>
<path d="M23.375 14.875C25.7222 14.875 27.625 12.9722 27.625 10.625C27.625 8.27779 25.7222 6.375 23.375 6.375C21.0278 6.375 19.125 8.27779 19.125 10.625C19.125 12.9722 21.0278 14.875 23.375 14.875ZM29.75 10.625C29.75 14.1458 26.8958 17 23.375 17C19.8542 17 17 14.1458 17 10.625C17 7.10418 19.8542 4.25 23.375 4.25C26.8958 4.25 29.75 7.10418 29.75 10.625Z" fill="black"/>
<path d="M14.7389 19.7199C13.9573 19.4699 13.089 19.2882 12.1258 19.1952C11.6491 19.1492 11.1492 19.125 10.625 19.125C2.125 19.125 0 25.5 0 27.625C0 29.0417 0.708333 29.75 2.125 29.75H11.0848C10.7856 29.1463 10.625 28.4307 10.625 27.625C10.625 25.4781 11.4266 23.2858 12.9409 21.4544C13.4582 20.8287 14.0587 20.2451 14.7389 19.7199ZM10.4551 21.251C9.18543 23.1914 8.5 25.4037 8.5 27.625H2.125C2.125 27.0709 2.47402 25.4362 3.73842 23.9611C4.89745 22.6088 6.91155 21.2918 10.4551 21.251Z" fill="black"/>
<path d="M3.1875 11.6875C3.1875 8.16668 6.04168 5.3125 9.5625 5.3125C13.0833 5.3125 15.9375 8.16668 15.9375 11.6875C15.9375 15.2083 13.0833 18.0625 9.5625 18.0625C6.04168 18.0625 3.1875 15.2083 3.1875 11.6875ZM9.5625 7.4375C7.21529 7.4375 5.3125 9.34029 5.3125 11.6875C5.3125 14.0347 7.21529 15.9375 9.5625 15.9375C11.9097 15.9375 13.8125 14.0347 13.8125 11.6875C13.8125 9.34029 11.9097 7.4375 9.5625 7.4375Z" fill="black"/>
</svg>
